<?xml version="1.0" encoding="UTF-8"?>
<svg viewBox="0 0 35 36" version="1.1" xmlns="http://www.w3.org/2000/svg" xmlns:xlink="http://www.w3.org/1999/xlink">
    <g stroke="none" stroke-width="1" fill="none" fill-rule="evenodd" transform="translate(-164.000000, -219.000000)">
        <g id="3" transform="translate(40.000000, 190.000000)">
            <g transform="translate(124.500000, 29.414062)">
                <g transform="translate(0.453656, 0.226828)">
                    <g>
                        <g>
                            <path
                                d="M16.7157492,0 C11.4909195,0 5.18846877,1.26558351 5.12620114e-06,4.05122239 C5.12620114e-06,10.0674495 -0.0716136324,25.0556925 16.7157492,35.2966798 C33.503483,25.0556925 33.4322354,10.0674495 33.4322354,4.05122239 C28.2434006,1.26558351 21.9409499,0 16.7157492,0 L16.7157492,0 Z"
                                id="Path"
                                fill="#68BC71"></path>
                            <path d="M16.6986743,35.2862582 C-0.0715650605,25.0455268 5.12620113e-06,10.0654091 5.12620113e-06,4.05122239 C5.18281802,1.26861734 11.4771929,0.00275849124 16.6986743,4.50378311e-06 L16.6986743,35.2862617 Z" id="Combined-Shape" fill="#67B279"></path>
                        </g>
                        <path
                            d="M16.1060247,23.551094 L26.2143155,9.51801869 C25.4736005,8.90647249 24.8238876,9.33808916 24.4662281,9.672244 L24.4531774,9.67331501 L16.0248987,18.7044208 L12.8493477,14.7681053 C11.3344091,12.96524 9.27486866,14.3404157 8.79375662,14.7038448 L16.1060247,23.551094"
                            id="Fill-11"
                            fill="#FFFFFF"></path>
                    </g>
                </g>
            </g>
        </g>
    </g>
</svg>
