<?xml version="1.0" encoding="UTF-8"?>
<!DOCTYPE svg PUBLIC "-//W3C//DTD SVG 1.1//EN" "http://www.w3.org/Graphics/SVG/1.1/DTD/svg11.dtd">
<!-- Creator: CorelDRAW X7 -->
<svg xmlns="http://www.w3.org/2000/svg" xml:space="preserve" width="2550px" height="3300px" version="1.1" style="shape-rendering:geometricPrecision; text-rendering:geometricPrecision; image-rendering:optimizeQuality; fill-rule:evenodd; clip-rule:evenodd"
viewBox="0 0 2550 3300"
 xmlns:xlink="http://www.w3.org/1999/xlink">
 <defs>
  <style type="text/css">
   <![CDATA[
    .fil0 {fill:#4FBE85}
   ]]>
  </style>
 </defs>
 <g id="Слой_x0020_1">
  <metadata id="CorelCorpID_0Corel-Layer"/>
  <path class="fil0" d="M1275 375c383,0 847,92 1227,291 0,436 5,1520 -1227,2259 -1232,-739 -1227,-1823 -1227,-2259 380,-199 845,-291 1227,-291zm0 214c-344,0 -714,77 -1012,209 7,449 91,1270 1012,1877 921,-609 1005,-1428 1012,-1872 -298,-135 -668,-214 -1012,-214z"/>
  <path class="fil0" d="M1925 979c48,12 28,3 60,24l-780 1068c0,0 -563,-673 -566,-673 38,-28 196,-133 314,5l244 298 653 -685c23,-25 44,-30 75,-37z"/>
 </g>
</svg>
