<?xml version="1.0" encoding="UTF-8"?>
<svg version="1.1" xmlns="http://www.w3.org/2000/svg" viewBox="0 0 100 100">
    <path d="M50,0 C65,0 83.2,3.6 98.1,11.4 C98.1,28.5 98.3,71 50,100 C1.7,71 1.9,28.5 1.9,11.4 C16.8,3.6 35,0 50,0 z M50,8.4 C36.5,8.4 22,11.4 10.3,16.6 C10.6,34.2 13.9,66.4 50,90.2 C86.1,66.3 89.4,34.2 89.7,16.8 C78,11.5 63.5,8.4 50,8.4 z M76.446,23.577 C78.302,24.038 77.545,23.667 78.8,24.5 L48.2,66.4 C48.2,66.4 26.1,40 26,40 C27.5,38.9 33.7,34.8 38.3,40.2 L47.9,51.9 L73.5,25 C74.388,24.031 75.219,23.853 76.446,23.577 z" fill="#43B653"/>
</svg>
