<?xml version="1.0" encoding="UTF-8"?>
<svg version="1.1" xmlns="http://www.w3.org/2000/svg" viewBox="0 0 24 24">
    <path d="M24,10 L20.75,8.375 L21.899,4.929 L19.07,2.101 L15.624,3.249 L14,0 L10,0 L8.375,3.25 L4.929,2.101 L2.101,4.929 L3.249,8.375 L0,10 L0,14 L3.25,15.625 L2.101,19.072 L4.93,21.899 L8.376,20.751 L10,24 L14,24 L15.625,20.75 L19.071,21.899 L21.899,19.071 L20.751,15.625 L24,14 L24,10 z M22,13 L18.563,14.719 L19.778,18.364 L18.364,19.778 L14.719,18.563 L13,22 L11,22 L9.281,18.563 L5.636,19.778 L4.221,18.364 L5.437,14.719 L2,13 L2,11 L5.437,9.281 L4.221,5.636 L5.636,4.221 L9.281,5.437 L11,2 L13,2 L14.719,5.437 L18.364,4.221 L19.778,5.636 L18.563,9.281 L22,11 L22,13 z M12,7.97 C9.774,7.97 7.97,9.774 7.97,12 C7.97,14.226 9.774,16.029 12,16.029 C14.226,16.029 16.029,14.226 16.029,12 C16.029,9.774 14.226,7.97 12,7.97 z M12,13.929 C10.934,13.929 10.071,13.066 10.071,12 C10.071,10.934 10.934,10.071 12,10.071 C13.066,10.071 13.929,10.934 13.929,12 C13.929,13.066 13.066,13.929 12,13.929 z" fill="#B4C1B6"/>
</svg>
