<?xml version="1.0" encoding="UTF-8"?>
<svg version="1.1" xmlns="http://www.w3.org/2000/svg" viewBox="0 0 24 24">
    <path d="M12.027,0.004 C8.52,0.004 4.29,1.139 0.808,3.037 C0.808,7.135 0.742,17.033 12.008,24.008 C23.274,17.033 23.245,7.179 23.245,3.081 C19.763,1.184 15.533,0.004 12.027,0.004 z M12.008,21.399 C3.674,15.045 3.059,7.757 3.059,4.307 C5.862,2.709 9.114,2.095 12.008,2.095 C14.903,2.095 18.196,2.746 21,4.344 C21,7.794 20.37,15.045 12.008,21.399 z" fill="#556257"/>
    <path d="M13.574,9.399 L10.443,9.399 L10.443,17.225 L13.574,17.225 L13.574,9.399 z M12.008,7.312 C13.286,7.312 13.917,6.822 13.917,5.77 C13.917,5.244 13.764,4.846 13.458,4.578 C13.153,4.309 12.666,4.174 12,4.174 C11.334,4.174 10.851,4.305 10.551,4.568 C10.252,4.831 10.102,5.231 10.102,5.77 C10.101,6.821 10.743,7.312 12.008,7.312 L12.008,7.312 z" fill="#4FBB54"/>
</svg>
