<?xml version="1.0" encoding="UTF-8"?>
<svg version="1.1" xmlns="http://www.w3.org/2000/svg" viewBox="0 0 38 15">
    <path d="M21.91,1.083 C18.008,1.083 14.846,4.07 14.846,7.758 C14.846,11.445 18.008,14.432 21.91,14.432 C25.813,14.432 28.977,11.445 28.977,7.758 C28.978,4.07 25.813,1.083 21.91,1.083 z M21.771,11.9 C19.5,11.9 17.657,10.056 17.657,7.783 C17.657,5.508 19.501,3.664 21.771,3.664 C24.045,3.664 25.886,5.508 25.886,7.783 C25.886,10.057 24.045,11.9 21.771,11.9 z" fill="#74B03E"/>
    <path d="M16.751,0.642 L17.031,0 L14.063,0 L11.27,8 L8.648,0 L8.272,0 L5.65,8 L3,0 L0.031,0 L4.9,13.486 C4.9,13.486 5.078,13.86 5.275,13.86 C5.451,13.86 5.649,13.486 5.649,13.486 L8.445,6.406 L11.269,13.486 C11.269,13.486 11.455,13.86 11.643,13.86 C11.829,13.86 12.018,13.486 12.018,13.486 L13.614,9.067 C13.445,8.433 13.345,7.773 13.345,7.089 C13.346,4.453 14.686,2.118 16.751,0.642 z" fill="#EE3428"/>
    <path d="M27.031,0 L27.031,0.613 C27.944,1.258 28.715,2.067 29.295,3 L31.031,3 L31.031,14 L34.031,14 L34.031,3 L38.031,3 L38.031,0 L27.031,0 z" fill="#F08615"/>
</svg>
