<?xml version="1.0" encoding="UTF-8"?>
<svg version="1.1" xmlns="http://www.w3.org/2000/svg" viewBox="0 0 24 24">
    <path d="M12.018,-0.003 C8.512,-0.003 4.282,1.132 0.8,3.029 C0.8,7.127 0.734,17.025 12,24 C23.266,17.025 23.237,7.171 23.237,3.074 C19.755,1.176 15.525,-0.003 12.018,-0.003 z M12,21.391 C3.666,15.038 3.051,7.75 3.051,4.299 C5.854,2.702 9.106,2.087 12,2.087 C14.895,2.087 18.188,2.739 20.991,4.337 C20.991,7.787 20.362,15.038 12,21.391 z M13.565,9.391 L10.435,9.391 L10.435,17.217 L13.565,17.217 L13.565,9.391 z M12,7.304 C13.278,7.304 13.909,6.814 13.909,5.762 C13.909,5.236 13.756,4.839 13.45,4.57 C13.144,4.301 12.658,4.167 11.992,4.167 C11.325,4.167 10.842,4.298 10.543,4.561 C10.243,4.824 10.094,5.224 10.094,5.763 C10.093,6.814 10.734,7.304 12,7.304 L12,7.304 z" fill="#B4C1B6"/>
</svg>
