<?xml version="1.0" encoding="UTF-8"?>
<svg version="1.1" xmlns="http://www.w3.org/2000/svg" viewBox="0 0 24 24">
    <path d="M10.667,21.067 C5.977,21.067 2.096,21.067 1.6,21.067 C0,21.067 0,19.467 0,19.467 L0,2.4 C0,2.4 0,0.8 1.6,0.8 C2.667,0.8 20.8,0.8 21.867,0.8 C23.467,0.8 23.467,2.4 23.467,2.4 L23.467,13.067 L21.333,12 L21.333,2.933 L2.133,2.933 L2.133,18.933 L10.667,18.933 L10.667,21.067 z M16.533,19.467 L19.077,22.941 L21.565,21.254 L19.042,17.715 L24,15.199 L12.8,11.467 L12.8,23.2 L16.533,19.467 z" fill="#B4C1B6"/>
</svg>
