<?xml version="1.0" encoding="UTF-8"?>
<svg version="1.1" xmlns="http://www.w3.org/2000/svg" viewBox="0 0 52 18">
    <path d="M5.353,7.412 L5.304,7.363 C7.121,7.125 8.529,5.587 8.529,3.706 C8.529,1.659 6.87,0 4.824,0 C2.777,0 1.118,1.659 1.118,3.706 C1.118,5.572 2.502,7.099 4.294,7.358 L4.294,7.412 C1.118,7.412 0.059,9.529 0.059,9.529 L1.118,15.882 C1.118,16.938 2.475,17.806 4.244,17.967 L4.294,18 L5.353,18 L5.403,17.967 C7.172,17.806 8.529,16.938 8.529,15.882 L9.588,9.529 C9.588,9.529 8.529,7.412 5.353,7.412 z" fill="#717171"/>
    <path d="M15.941,7.412 L15.892,7.363 C17.709,7.125 19.118,5.587 19.118,3.706 C19.118,1.659 17.458,0 15.412,0 C13.365,0 11.706,1.659 11.706,3.706 C11.706,5.572 13.09,7.099 14.882,7.358 L14.882,7.412 C11.706,7.412 10.647,9.529 10.647,9.529 L11.706,15.882 C11.706,16.938 13.063,17.806 14.833,17.967 L14.882,18 L15.941,18 L15.991,17.967 C17.76,17.806 19.118,16.938 19.118,15.882 L20.176,9.529 C20.176,9.529 19.118,7.412 15.941,7.412 z" fill="#717171"/>
    <path d="M26.529,7.412 L26.481,7.363 C28.298,7.125 29.706,5.587 29.706,3.706 C29.706,1.659 28.047,0 26,0 C23.953,0 22.294,1.659 22.294,3.706 C22.294,5.572 23.678,7.099 25.471,7.358 L25.471,7.412 C22.294,7.412 21.235,9.529 21.235,9.529 L22.294,15.882 C22.294,16.938 23.652,17.806 25.421,17.967 L25.471,18 L26.529,18 L26.579,17.967 C28.348,17.806 29.706,16.938 29.706,15.882 L30.765,9.529 C30.765,9.529 29.706,7.412 26.529,7.412 z" fill="#D6D6D6"/>
    <path d="M37.118,7.412 L37.069,7.363 C38.886,7.125 40.294,5.587 40.294,3.706 C40.294,1.659 38.635,0 36.588,0 C34.542,0 32.882,1.659 32.882,3.706 C32.882,5.572 34.266,7.099 36.059,7.358 L36.059,7.412 C32.882,7.412 31.824,9.529 31.824,9.529 L32.882,15.882 C32.882,16.938 34.24,17.806 36.009,17.967 L36.059,18 L37.118,18 L37.167,17.967 C38.937,17.806 40.294,16.938 40.294,15.882 L41.353,9.529 C41.353,9.529 40.294,7.412 37.118,7.412 z" fill="#D6D6D6"/>
    <path d="M47.706,7.412 L47.657,7.363 C49.474,7.125 50.882,5.587 50.882,3.706 C50.882,1.659 49.223,0 47.176,0 C45.13,0 43.471,1.659 43.471,3.706 C43.471,5.572 44.854,7.099 46.647,7.358 L46.647,7.412 C43.471,7.412 42.412,9.529 42.412,9.529 L43.471,15.882 C43.471,16.938 44.828,17.806 46.597,17.967 L46.647,18 L47.706,18 L47.756,17.967 C49.525,17.806 50.882,16.938 50.882,15.882 L51.941,9.529 C51.941,9.529 50.882,7.412 47.706,7.412 z" fill="#D6D6D6"/>
</svg>
