<?xml version="1.0" encoding="UTF-8"?>
<svg version="1.1" xmlns="http://www.w3.org/2000/svg" viewBox="0 0 24 24">
    <path d="M23.526,10.389 C23.521,10.378 23.515,10.366 23.51,10.354 C23.761,10.041 24,9.596 24,9 C24,8.451 23.798,8.04 23.542,7.52 C23.542,7.519 23.541,7.519 23.54,7.517 C24.039,6.815 24.165,5.976 23.838,5.213 C23.729,4.958 23.583,4.616 22.229,3.22 C22.138,2.908 22,2.529 21.789,2.106 C21.064,0.656 19.142,0.172 18.35,0.031 L18.175,0 L17.998,0 L12.804,0.004 L12.736,0.004 L12.669,0.008 C9.798,0.204 8.182,0.727 7.269,1.269 L7,1 C7,1 3,1 2,1 C1,1 1,2 1,2 L-0,12 C-0,12 -0,13 1,13 C2,13 7,13 7,13 L7.416,12.168 C7.726,12.483 8.167,13.113 8.324,13.432 C8.459,13.854 8.762,14.465 9.468,15.816 C9.578,16.027 9.675,16.212 9.742,16.344 C10.163,17.173 10.828,17.662 11.267,17.986 C11.321,18.025 11.388,18.075 11.437,18.112 C11.513,18.24 11.638,18.488 11.725,18.662 C11.913,19.035 12.125,19.455 12.389,19.868 C12.537,20.176 12.778,21.26 12.899,22.167 L12.988,22.838 L13.466,23.318 C13.884,23.736 14.483,23.977 15.11,23.977 C15.756,23.977 16.392,23.735 17.001,23.256 C18.521,22.06 18.844,18.351 18.361,17.037 C18.174,16.53 17.848,16.032 17.503,15.505 C17.414,15.369 17.295,15.186 17.178,14.999 C17.327,15.005 17.598,15.019 17.824,15.031 C18.461,15.066 19.254,15.11 19.938,15.11 C20.786,15.11 21.42,15.051 21.959,14.757 C22.567,14.424 24.184,13.542 23.988,11.781 C23.936,11.314 23.755,10.906 23.526,10.389 z M21.416,7.614 C21.46,7.923 22,8.823 22,9 C22,9.177 21.422,9.46 21.289,9.858 C21.156,10.255 21.956,11.602 22,12 C22.044,12.398 21.486,12.734 21,13 C20.851,13.082 20.441,13.109 19.938,13.109 C18.914,13.109 17.5,12.996 17.095,12.996 C17.05,12.996 17.018,12.997 17,13 C16.735,13.044 15.03,13.264 14.82,14.222 C14.61,15.182 16.174,16.885 16.484,17.726 C16.793,18.566 16.383,21.196 15.765,21.683 C15.469,21.915 15.254,21.976 15.11,21.976 C14.953,21.976 14.881,21.903 14.881,21.903 C14.881,21.903 14.572,19.559 14.086,18.808 C13.6,18.056 13.247,17.083 12.894,16.729 C12.54,16.375 11.833,16.044 11.524,15.436 C11.215,14.828 10.308,13.144 10.22,12.79 C10.132,12.437 8.977,10.538 8.049,10.193 L8,3.308 L8,3.205 C8.007,3.197 8.812,2.277 12.806,2.004 L18,2 C18,2 19.646,2.293 20,3 C20.354,3.708 20.403,4.214 20.403,4.214 C20.403,4.214 21.868,5.691 22,6 C22.132,6.31 21.552,6.691 21.552,6.691 C21.552,6.691 21.372,7.304 21.416,7.614 z" fill="#B4C1B6"/>
</svg>
