<?xml version="1.0" encoding="UTF-8"?>
<svg version="1.1" xmlns="http://www.w3.org/2000/svg" viewBox="0 0 24 24">
    <path d="M18,2 C18,2 19.646,2.292 20,3 C20.354,3.707 20.403,4.214 20.403,4.214 C20.403,4.214 21.868,5.69 22,6 C22.132,6.309 21.552,6.691 21.552,6.691 C21.552,6.691 21.372,7.304 21.416,7.613 C21.46,7.923 22,8.823 22,9 C22,9.177 21.422,9.459 21.29,9.857 C21.156,10.255 21.956,11.602 22,12 C22.044,12.398 21.486,12.734 21,13 C20.851,13.082 20.441,13.108 19.938,13.108 C18.914,13.108 17.5,12.995 17.095,12.995 C17.051,12.995 17.019,12.997 17,13 C16.735,13.044 15.031,13.263 14.821,14.222 C14.611,15.181 16.174,16.885 16.484,17.726 C16.793,18.566 16.384,21.196 15.765,21.682 C15.47,21.915 15.255,21.976 15.111,21.976 C14.954,21.976 14.882,21.903 14.882,21.903 C14.882,21.903 14.572,19.559 14.087,18.807 C13.601,18.056 13.247,17.083 12.894,16.729 C12.541,16.375 11.833,16.043 11.524,15.435 C11.215,14.827 10.308,13.144 10.22,12.79 C10.132,12.437 8.928,10.539 8,10.193 L8,3.21 C8,3.21 8.794,2.277 12.806,2.003 L18,2 M18.176,-0 L17.999,-0 L12.804,0.003 L12.737,0.003 L12.669,0.008 C8.661,0.281 7.092,1.19 6.48,1.905 L5.994,2.473 L6,3.22 L6.05,10.208 L6.06,11.587 L7.273,12.039 C7.57,12.262 8.141,13.06 8.324,13.432 C8.46,13.854 8.763,14.465 9.469,15.816 C9.579,16.027 9.675,16.212 9.742,16.344 C10.163,17.173 10.828,17.662 11.267,17.986 C11.321,18.025 11.388,18.075 11.437,18.112 C11.513,18.24 11.638,18.488 11.726,18.662 C11.913,19.035 12.126,19.456 12.389,19.868 C12.537,20.176 12.778,21.26 12.899,22.168 L12.988,22.838 L13.466,23.318 C13.884,23.737 14.484,23.977 15.111,23.977 C15.757,23.977 16.392,23.735 17.001,23.257 C18.521,22.061 18.844,18.352 18.361,17.038 C18.174,16.531 17.849,16.033 17.503,15.506 C17.414,15.369 17.295,15.186 17.178,14.999 C17.327,15.005 17.598,15.02 17.824,15.032 C18.461,15.067 19.254,15.11 19.938,15.11 C20.786,15.11 21.42,15.051 21.959,14.757 C22.568,14.424 24.184,13.542 23.988,11.781 C23.937,11.316 23.756,10.908 23.527,10.391 C23.521,10.38 23.516,10.368 23.51,10.355 C23.761,10.041 24,9.596 24,9 C24,8.451 23.798,8.04 23.542,7.52 C23.542,7.519 23.541,7.518 23.541,7.517 C24.04,6.815 24.166,5.976 23.839,5.213 C23.729,4.958 23.583,4.616 22.229,3.22 C22.138,2.908 22,2.528 21.789,2.106 C21.065,0.656 19.142,0.171 18.35,0.031 L18.176,-0 L18.176,-0 z" fill="#556257"/>
    <path d="M1,13 C2,13 7,13 7,13 C7,13 8,13 8,11 C8,9 8,3 8,2 C8,1 7,1 7,1 C7,1 3,1 2,1 C1,1 1,2 1,2 L0,12 C0,12 0,13 1,13 z" fill="#4FBB54"/>
</svg>
