<?xml version="1.0" encoding="UTF-8"?>
<svg version="1.1" xmlns="http://www.w3.org/2000/svg" viewBox="0 0 24 24">
    <path d="M13,13.711 L16.645,17.355 L15.231,18.77 L11.293,14.832 L11,14 L11,14 L11,7 L13,7 L13,13.711 z M13,3.05 L13,2 L15,2 L15,0 L9,0 L9,2 L11,2 L11,3.05 C5.67,3.555 1.5,8.038 1.5,13.5 C1.5,19.299 6.201,24 12,24 C17.799,24 22.5,19.299 22.5,13.5 C22.5,8.038 18.33,3.555 13,3.05 z M12,22 C7.313,22 3.5,18.187 3.5,13.5 C3.5,8.813 7.313,5 12,5 C16.687,5 20.5,8.813 20.5,13.5 C20.5,18.187 16.687,22 12,22 z" fill="#B4C1B6"/>
</svg>
