<svg xmlns="http://www.w3.org/2000/svg" width="2550" height="3300" viewBox="0 0 2550 3300" shape-rendering="geometricPrecision" text-rendering="geometricPrecision" image-rendering="optimizeQuality" fill-rule="evenodd" clip-rule="evenodd"><defs><style>.fil0{fill:#4fbe85}</style></defs><g id="Слой_x0020_1"><path class="fil0" d="M1275 375c383 0 847 92 1227 291 0 436 5 1520-1227 2259C43 2186 48 1102 48 666c380-199 845-291 1227-291zm0 214c-344 0-714 77-1012 209 7 449 91 1270 1012 1877 921-609 1005-1428 1012-1872-298-135-668-214-1012-214z"/><path class="fil0" d="M1925 979c48 12 28 3 60 24l-780 1068s-563-673-566-673c38-28 196-133 314 5l244 298 653-685c23-25 44-30 75-37z"/></g></svg>