<svg xmlns="http://www.w3.org/2000/svg" viewBox="0 0 24 24"><path d="M12.018-.003C8.512-.003 4.282 1.132.8 3.029.8 7.127.734 17.025 12 24 23.266 17.025 23.237 7.171 23.237 3.074 19.755 1.176 15.525-.003 12.018-.003zM12 21.391C3.666 15.038 3.051 7.75 3.051 4.299 5.854 2.702 9.106 2.087 12 2.087c2.895 0 6.188.652 8.991 2.25 0 3.45-.629 10.701-8.991 17.054zm1.565-12h-3.13v7.826h3.13V9.391zM12 7.304c1.278 0 1.909-.49 1.909-1.542 0-.526-.153-.923-.459-1.192-.306-.269-.792-.403-1.458-.403-.667 0-1.15.131-1.449.394-.3.263-.449.663-.449 1.202-.001 1.051.64 1.541 1.906 1.541z" fill="#B4C1B6"/></svg>