<svg xmlns="http://www.w3.org/2000/svg" viewBox="0 0 24 24"><path d="M18 2s1.646.292 2 1c.354.707.403 1.214.403 1.214S21.868 5.69 22 6c.132.309-.448.691-.448.691s-.18.613-.136.922C21.46 7.923 22 8.823 22 9c0 .177-.578.459-.71.857-.134.398.666 1.745.71 2.143.044.398-.514.734-1 1-.149.082-.559.108-1.062.108-1.024 0-2.438-.113-2.843-.113A.674.674 0 0 0 17 13c-.265.044-1.969.263-2.179 1.222-.21.959 1.353 2.663 1.663 3.504.309.84-.1 3.47-.719 3.956-.295.233-.51.294-.654.294-.157 0-.229-.073-.229-.073s-.31-2.344-.795-3.096c-.486-.751-.84-1.724-1.193-2.078-.353-.354-1.061-.686-1.37-1.294-.309-.608-1.216-2.291-1.304-2.645-.088-.353-1.292-2.251-2.22-2.597V3.21s.794-.933 4.806-1.207L18 2m.176-2h-.177l-5.195.003h-.067l-.068.005C8.661.281 7.092 1.19 6.48 1.905l-.486.568L6 3.22l.05 6.988.01 1.379 1.213.452c.297.223.868 1.021 1.051 1.393.136.422.439 1.033 1.145 2.384.11.211.206.396.273.528.421.829 1.086 1.318 1.525 1.642l.17.126c.076.128.201.376.289.55.187.373.4.794.663 1.206.148.308.389 1.392.51 2.3l.089.67.478.48a2.33 2.33 0 0 0 1.645.659c.646 0 1.281-.242 1.89-.72 1.52-1.196 1.843-4.905 1.36-6.219-.187-.507-.512-1.005-.858-1.532-.089-.137-.208-.32-.325-.507.149.006.42.021.646.033.637.035 1.43.078 2.114.078.848 0 1.482-.059 2.021-.353.609-.333 2.225-1.215 2.029-2.976-.051-.465-.232-.873-.461-1.39l-.017-.036A2.13 2.13 0 0 0 24 9c0-.549-.202-.96-.458-1.48l-.001-.003c.499-.702.625-1.541.298-2.304-.11-.255-.256-.597-1.61-1.993a6.673 6.673 0 0 0-.44-1.114C21.065.656 19.142.171 18.35.031L18.176 0z" fill="#556257"/><path d="M1 13h6s1 0 1-2V2c0-1-1-1-1-1H2C1 1 1 2 1 2L0 12s0 1 1 1z" fill="#4FBB54"/></svg>