<svg xmlns="http://www.w3.org/2000/svg" viewBox="0 0 24 24"><path d="M12.027.004C8.52.004 4.29 1.139.808 3.037c0 4.098-.066 13.996 11.2 20.971C23.274 17.033 23.245 7.179 23.245 3.081 19.763 1.184 15.533.004 12.027.004zm-.019 21.395C3.674 15.045 3.059 7.757 3.059 4.307c2.803-1.598 6.055-2.212 8.949-2.212 2.895 0 6.188.651 8.992 2.249 0 3.45-.63 10.701-8.992 17.055z" fill="#556257"/><path d="M13.574 9.399h-3.131v7.826h3.131V9.399zm-1.566-2.087c1.278 0 1.909-.49 1.909-1.542 0-.526-.153-.924-.459-1.192-.305-.269-.792-.404-1.458-.404-.666 0-1.149.131-1.449.394-.299.263-.449.663-.449 1.202-.001 1.051.641 1.542 1.906 1.542z" fill="#4FBB54"/></svg>