<svg xmlns="http://www.w3.org/2000/svg" viewBox="0 0 24 24"><path d="M24 10l-3.25-1.625 1.149-3.446-2.829-2.828-3.446 1.148L14 0h-4L8.375 3.25 4.929 2.101 2.101 4.929l1.148 3.446L0 10v4l3.25 1.625-1.149 3.447 2.829 2.827 3.446-1.148L10 24h4l1.625-3.25 3.446 1.149 2.828-2.828-1.148-3.446L24 14v-4zm-2 3l-3.437 1.719 1.215 3.645-1.414 1.414-3.645-1.215L13 22h-2l-1.719-3.437-3.645 1.215-1.415-1.414 1.216-3.645L2 13v-2l3.437-1.719-1.216-3.645 1.415-1.415 3.645 1.216L11 2h2l1.719 3.437 3.645-1.216 1.414 1.415-1.215 3.645L22 11v2zM12 7.97a4.03 4.03 0 1 0 0 8.06 4.03 4.03 0 0 0 0-8.06zm0 5.959a1.928 1.928 0 1 1 0-3.858 1.928 1.928 0 1 1 0 3.858z" fill="#B4C1B6"/></svg>