<svg xmlns="http://www.w3.org/2000/svg" viewBox="0 0 24 24"><path d="M23.526 10.389l-.016-.035c.251-.313.49-.758.49-1.354 0-.549-.202-.96-.458-1.48l-.002-.003c.499-.702.625-1.541.298-2.304-.109-.255-.255-.597-1.609-1.993a6.707 6.707 0 0 0-.44-1.114C21.064.656 19.142.172 18.35.031L18.175 0h-.177l-5.194.004h-.068l-.067.004c-2.871.196-4.487.719-5.4 1.261L7 1H2C1 1 1 2 1 2L0 12s0 1 1 1h6l.416-.832c.31.315.751.945.908 1.264.135.422.438 1.033 1.144 2.384.11.211.207.396.274.528.421.829 1.086 1.318 1.525 1.642l.17.126c.076.128.201.376.288.55.188.373.4.793.664 1.206.148.308.389 1.392.51 2.299l.089.671.478.48a2.332 2.332 0 0 0 1.644.659c.646 0 1.282-.242 1.891-.721 1.52-1.196 1.843-4.905 1.36-6.219-.187-.507-.513-1.005-.858-1.532a29.963 29.963 0 0 1-.325-.506c.149.006.42.02.646.032.637.035 1.43.079 2.114.079.848 0 1.482-.059 2.021-.353.608-.333 2.225-1.215 2.029-2.976-.052-.467-.233-.875-.462-1.392zm-2.11-2.775C21.46 7.923 22 8.823 22 9c0 .177-.578.46-.711.858-.133.397.667 1.744.711 2.142.044.398-.514.734-1 1-.149.082-.559.109-1.062.109-1.024 0-2.438-.113-2.843-.113A.697.697 0 0 0 17 13c-.265.044-1.97.264-2.18 1.222-.21.96 1.354 2.663 1.664 3.504.309.84-.101 3.47-.719 3.957-.296.232-.511.293-.655.293-.157 0-.229-.073-.229-.073s-.309-2.344-.795-3.095c-.486-.752-.839-1.725-1.192-2.079-.354-.354-1.061-.685-1.37-1.293-.309-.608-1.216-2.292-1.304-2.646-.088-.353-1.243-2.252-2.171-2.597L8 3.308v-.103c.007-.008.812-.928 4.806-1.201L18 2s1.646.293 2 1c.354.708.403 1.214.403 1.214S21.868 5.691 22 6c.132.31-.448.691-.448.691s-.18.613-.136.923z" fill="#B4C1B6"/></svg>