<svg xmlns="http://www.w3.org/2000/svg" viewBox="0 0 52 18"><path d="M5.353 7.412l-.049-.049c1.817-.238 3.225-1.776 3.225-3.657a3.705 3.705 0 1 0-7.411 0 3.695 3.695 0 0 0 3.176 3.652v.054C1.118 7.412.059 9.529.059 9.529l1.059 6.353c0 1.056 1.357 1.924 3.126 2.085l.05.033h1.059l.05-.033c1.769-.161 3.126-1.029 3.126-2.085l1.059-6.353S8.529 7.412 5.353 7.412zM15.941 7.412l-.049-.049c1.817-.238 3.226-1.776 3.226-3.657a3.706 3.706 0 0 0-7.412 0 3.695 3.695 0 0 0 3.176 3.652v.054c-3.176 0-4.235 2.117-4.235 2.117l1.059 6.353c0 1.056 1.357 1.924 3.127 2.085l.049.033h1.059l.05-.033c1.769-.161 3.127-1.029 3.127-2.085l1.058-6.353s-1.058-2.117-4.235-2.117z" fill="#717171"/><path d="M26.529 7.412l-.048-.049c1.817-.238 3.225-1.776 3.225-3.657a3.706 3.706 0 1 0-7.412 0c0 1.866 1.384 3.393 3.177 3.652v.054c-3.177 0-4.236 2.117-4.236 2.117l1.059 6.353c0 1.056 1.358 1.924 3.127 2.085l.05.033h1.058l.05-.033c1.769-.161 3.127-1.029 3.127-2.085l1.059-6.353s-1.059-2.117-4.236-2.117zM37.118 7.412l-.049-.049c1.817-.238 3.225-1.776 3.225-3.657a3.706 3.706 0 1 0-7.412 0c0 1.866 1.384 3.393 3.177 3.652v.054c-3.177 0-4.235 2.117-4.235 2.117l1.058 6.353c0 1.056 1.358 1.924 3.127 2.085l.05.033h1.059l.049-.033c1.77-.161 3.127-1.029 3.127-2.085l1.059-6.353s-1.059-2.117-4.235-2.117zM47.706 7.412l-.049-.049c1.817-.238 3.225-1.776 3.225-3.657a3.706 3.706 0 1 0-7.411 0 3.695 3.695 0 0 0 3.176 3.652v.054c-3.176 0-4.235 2.117-4.235 2.117l1.059 6.353c0 1.056 1.357 1.924 3.126 2.085l.05.033h1.059l.05-.033c1.769-.161 3.126-1.029 3.126-2.085l1.059-6.353s-1.059-2.117-4.235-2.117z" fill="#D6D6D6"/></svg>