<svg xmlns="http://www.w3.org/2000/svg" viewBox="0 0 38 15"><path d="M21.91 1.083c-3.902 0-7.064 2.987-7.064 6.675 0 3.687 3.162 6.674 7.064 6.674 3.903 0 7.067-2.987 7.067-6.674.001-3.688-3.164-6.675-7.067-6.675zM21.771 11.9a4.118 4.118 0 1 1 0-8.236 4.116 4.116 0 0 1 4.115 4.119 4.115 4.115 0 0 1-4.115 4.117z" fill="#74B03E"/><path d="M16.751.642l.28-.642h-2.968L11.27 8 8.648 0h-.376L5.65 8 3 0H.031L4.9 13.486s.178.374.375.374c.176 0 .374-.374.374-.374l2.796-7.08 2.824 7.08s.186.374.374.374c.186 0 .375-.374.375-.374l1.596-4.419a7.657 7.657 0 0 1-.269-1.978c.001-2.636 1.341-4.971 3.406-6.447z" fill="#EE3428"/><path d="M27.031 0v.613A8.286 8.286 0 0 1 29.295 3h1.736v11h3V3h4V0h-11z" fill="#F08615"/></svg>